<?xml version="1.0" encoding="UTF-8"?>
<svg width="431.14" height="269.63" enable-background="new 0 0 431.14 269.628" viewBox="0 0 431.14 269.628" xmlns="http://www.w3.org/2000/svg">
 <g fill-rule="evenodd">
  <path d="m396.44,129.12c8.504,7.783 22.627,11.964 33.579,15.421-.146.433-.288.866-.434,1.441-6.917-2.019-13.832-4.035-20.749-5.908-3.749-1.729-7.495-3.314-11.242-4.901-.43-1.87-.72-4.03-1.16-6.05z" fill="#e6e6b8"/>
  <path d="m365.18,112.12c16.715,21.759 34.872,33.291 62.399,40.494 4.322,0 3.457,3.747.143,3.026-29.831-10.663-45.539-14.844-65.714-42.224 1-.44 2.01-.87 3.17-1.3z" fill="#e6e6b8"/>
  <path d="m330.01,267.04c8.937-7.781 12.104-12.104 24.355-14.987-3.46,2.45-6.918,5.044-10.378,7.494 2.451-.72 4.759-1.297 7.207-2.018-4.61,2.307-9.512,4.18-12.972,8.072 2.451-1.298 4.901-2.453 7.352-3.46 5.188-1.009 10.086-1.729 14.698-3.748-1.584,1.298-3.313,2.739-5.044,4.037 3.028-.577 5.476-2.162 8.072-3.603-1.154,1.009-2.45,2.16-3.605,3.314 5.045,1.874 5.333-.432 9.368-3.603-.721,1.729-1.441,3.314-2.162,5.044 2.594,0 5.188.144 7.927.289-10.952,3.746-14.698,1.007-23.488,1.871 1.007-.719 2.161-1.296 3.168-1.871-1.729.432-3.603,1.007-5.476,1.584 1.009-1.009 2.162-2.016 3.314-3.026-5.331,1.728-10.375,3.171-15.708,4.324 .146-.721.577-1.585.72-2.451-2.45,1.02-4.9,1.89-7.35,2.76z" fill="#666652"/>
  <path d="m0,255.79s3.89-7.781 10.088-7.781c6.051,0 11.959-4.469 11.959-4.469-1.873,1.729-3.746,3.316-5.619,5.046 3.603-1.875 7.206-3.748 10.664-5.478-3.314,2.453-6.629,5.046-9.943,7.495 3.603-1.298 7.061-2.594 10.52-3.892-2.594,1.729-5.188,3.314-7.783,4.901 3.892-1.009 7.783-1.873 11.818-2.882 .432-3.603 1.009-7.206 1.584-10.809 .289,4.18.578,8.215.721,12.539 1.441-1.441 2.883-2.739 4.324-4.035-.577,1.152-1.152,2.448-1.873,3.601h6.34c.866-4.033 1.586-8.07 2.307-12.104 .289,4.18.432,8.215.721,12.539 1.441-3.892 2.882-7.638 4.323-11.241-.866,4.035-1.586,8.069-2.451,12.104 1.296-1.441 2.451-3.026 3.747-4.612-.432,1.729-1.007,3.46-1.585,5.189 10.807,0 22.193-2.307 33-3.46 12.828.578 25.653,1.153 38.478,1.441 2.739-1.873 5.476-3.746 8.215-5.476-1.154,1.586-2.161,3.171-3.171,4.613 2.451-1.441 4.899-3.026 7.35-4.613-1.152,1.296-2.162,2.594-3.459,3.892 3.028.143 6.053.289 9.224.432 3.891-.432 7.924-.866 11.961-1.152 3.604.143 7.35.432 10.952.72 31.562-.72 62.977-1.729 94.249,1.296 7.781-.432 15.563-.575 23.345-.864l9.512,3.892c0,0 32.136,4.756 33.577,4.756 1.296,0 6.053-1.587 6.053-1.587-1.729,1.443-3.459,2.739-5.043,4.181 2.016-.721 4.178-1.587 6.34-2.305-2.594,1.727-5.043,3.458-7.639,5.187 6.196-1.152 12.106-2.882 18.158-4.612-4.035,2.162-8.069,4.466-11.962,6.628-7.06,0-13.978,0-20.895.146-6.917-.866-13.978-1.875-20.896-2.739-8.646,1.441-17.148,2.884-25.652,4.18-3.892-.432-7.781-1.009-11.529-1.587-7.492-7.781-17.292-7.781-27.38-7.781-10.953.432-22.194.864-33.433,1.296-.866,2.739-1.729,5.333-2.45,8.072-10.231.432-25.653,1.298-32.571-7.783-10.662,1.155-21.328,2.451-31.846,3.603-4.901,2.019-9.943,4.18-14.987,6.342-5.333-.864-10.666-1.441-16.142-2.162-3.314-1.587-6.917-2.882-10.375-4.324-7.206-1.441-14.412-2.739-21.618-3.891-7.493.289-15.131,1.009-22.769,1.441-4.612-.432-9.222-.864-13.834-1.298 2.45-1.439 4.898-2.88 7.349-4.178-3.168,1.152-6.34,2.162-9.511,3.171 .289-.867.432-1.587.721-2.305-1.874.718-3.892,1.438-5.908,2.305-2.882-.433-5.765-.867-8.791-1.298 .864-1.295 1.584-2.594 2.448-3.892-2.869,1.16-5.895,2.45-8.92,3.6z" fill="#666652"/>
  <path d="m59.662,94.537c2.594-10.523 5.188-21.184 7.781-31.85l25.076-32.856c37.036-17.581 47.411-17.726 86.032-12.539 0,0 15.854,6.054 20.464,5.044 18.158-4.032 43.665-16.282 63.119-21.904 10.522,2.739 21.041,5.908 31.417,8.934 10.81,1.009 21.473,2.021 32.137,3.028 14.411,0 21.184,2.162 34.875,6.485 5.765,12.68 12.393,25.651 20.031,37.324 1.873,6.053 3.746,12.25 5.619,18.301 3.46,14.989 7.206,29.976 10.231,44.82 1.01,5.908 2.019,11.672 3.028,17.438-3.892-2.307-7.784-4.612-11.529-6.917-5.908-5.91-11.673-11.675-17.438-17.583-5.045-1.152-9.943-2.305-15.133-3.314-6.194-.289-12.537-.575-18.877-1.009-3.746,2.593-7.205,6.63-10.952,9.224-5.188-.72-11.529-2.018-16.573-2.739-8.502-1.584-15.852-3.892-24.21-5.476 1.585,15.278 3.169,30.263 4.612,45.682-2.019,21.475-4.9,42.224-8.646,63.553-1.01,8.07-2.162,16.285-3.171,24.498 .432,2.019.863,4.035 1.44,6.197 0,0 8.215,12.539 8.215,13.834 0,1.155-1.729,3.603-1.729,3.603-3.603.721-7.494,1.298-11.241,2.019-4.323-.721-8.501-1.298-12.682-2.019-3.168-2.162-6.197-4.178-9.223-6.196 1.441-6.917 2.883-13.834 4.467-20.752-1.151-28.245-2.45-56.634-3.457-84.737-5.91,1.586-11.818,3.171-17.727,4.901-7.638,20.031-15.132,40.352-22.05,60.382-3.746,7.638-7.35,15.13-10.952,22.625-2.45,1.584-4.898,3.169-7.205,4.755-2.594,6.628-5.188,13.114-7.781,19.743 0,0 .72-.286-6.918-.721-7.638-.432-14.266-7.492-14.266-7.492-.863-4.035-1.585-7.927-2.308-11.961 0,0-1.006-5.044 6.63-7.638 7.781-2.737 16.43-15.419 16.43-15.419 3.168-16.142 6.196-32.281 9.51-48.42-2.882-6.197-5.476-12.396-8.215-18.593-17.58.578-35.019,1.155-52.456,1.73-1.442,5.043-2.882,10.233-4.179,15.421-3.171,5.188-4.466,14.984-7.781,20.031 0,0-3.603,28.822-3.603,32.857s.143,24.787.143,27.237 3.314,8.791 3.314,8.791c2.305,3.747-4.323,5.333-8.501,6.197-6.63-.864-11.818-1.587-18.59-2.305-.721-1.444-1.586-3.028-2.307-4.469l4.323-13.402v-52.888s-8.933-37.612-16.86-51.447c-7.905-13.68-22.314-49.993-22.314-49.993z" fill="#bab6aa"/>
  <path d="m260.84,226.68s5.333,3.749 8.502,3.749 5.622-2.307 5.622-2.307l-4.756-6.052 5.33,2.88s1.73-2.303 3.46-7.058c1.585-4.901 4.898-20.754 4.898-20.754l-4.467,28.967-.863,11.095-.577,8.361 3.025,6.483-4.899-3.89-11.672-4.323h5.908l-5.331-5.047-3.028-2.88 9.656,3.458-9.224-5.765 8.504,1.586s-4.756-3.749-6.631-5.188c-2.16-1.59-3.45-3.32-3.45-3.32z" fill="#7f7f7f"/>
  <path d="m72.487,192.39c-2.594,10.375-5.188,20.896-7.781,31.272-2.882,8.358-5.91,17.006-8.936,25.365 0,0-1.729,5.476.143,7.349 2.019,1.874 10.088,5.476 12.682,5.908s10.232-.144 10.232-.144c3.171-1.729 6.485-2.305 4.612-7.206-1.153-2.594-2.305-6.34-2.016-9.366 .432-3.028 5.187-13.98 5.187-13.98 2.016-7.204 3.746-14.412 5.62-21.616 0,0-8.502-10.666-11.241-12.827-2.737-2.29-8.502-4.74-8.502-4.74z" fill="#99938d"/>
  <path d="m65.424,261.7c-2.017-.864-4.035-1.729-6.196-2.451-4.033-6.196-3.315-10.809-.864-17.581 3.026-9.368 5.908-18.59 8.936-28.101 1.728-6.774 3.314-13.691 4.898-20.609 1.73,1.73 3.458,3.457 5.044,5.187-6.197,6.34-6.917,12.683-8.791,20.752 1.874-2.162 3.892-4.178 5.765-6.197 0,0-7.206,10.521-7.783,12.248-.432,1.586-2.737,11.532-2.737,11.532 1.873-3.605 3.603-7.063 5.476-10.52 0,0-4.035,11.095-4.035,13.114v6.194c2.448,3.46 4.466,6.342 8.933,7.352 1.441.721 3.028,1.295 4.613,1.728h3.746c-3.025,1.587-4.898,2.162-6.485,5.044-1.728-3.889-3.314-3.889-5.908-.575-2.305-4.18-4.467-3.746-8.501-2.451 1.584,1.61 2.737,3.34 3.889,5.35z" fill="#666"/>
  <path d="m176.68,260.12h10.521c5.187-6.629 9.942-13.834 16.284-19.309 2.736-5.767 5.763-11.673 8.502-17.151 2.161-5.762 4.178-11.527 6.054-17.292-1.876,3.026-4.181,6.051-6.343,9.077-5.332,2.453-11.241,3.317-17.006,3.749 4.901,1.873 8.793,3.168 14.123,2.162-.72,5.331-10.952,5.908-15.13,6.628 3.314.144 6.771.432 10.232.578 1.729-.434 3.457-1.009 5.33-1.444-1.728,1.875-3.458,3.749-5.188,5.765 0,0-3.746-2.737-5.476-2.737-4.179,0-8.216,1.009-11.962,2.737 3.46,1.152 6.917,2.451 10.088,4.323h-8.936c2.594.721 5.477,1.584 8.216,2.451 .146.577.288,1.296.577,2.019-3.603-1.009-7.206-1.875-10.809-2.739l3.891,3.46c-1.154.864-2.161,1.728-3.313,2.448h-4.181s-3.604,3.171-3.604,4.181 3.461,4.898 2.451,6.196c-1.01,1.295-5.908,1.584-5.908,1.584 .59,1.14 1.17,2.14 1.6,3.3z" fill="#99938d"/>
  <path d="m56.634,156.79-5.763,31.272s-.289,7.063.864,9.368c1.009,2.306 4.035.144 4.035.144l3.026-28.819-2.162-11.96z" fill="#999"/>
  <path d="m378.72,133.59c7.061,4.178 14.267,8.502 21.326,12.826v17.583c-.574,7.493-1.295,15.131-1.729,22.769-.432,14.844-.719,29.542-1.15,44.241-.723,11.672-2.45,26.374-15.132,31.417-4.612,1.874-15.564,2.162-15.564,2.162 1.152-4.901 6.917-6.631 4.612-12.682 .143-1.009.288-2.162.575-3.314 5.044,3.601 9.942-2.594 11.098-6.774-1.45-36.18-2.74-72.36-4.04-108.24z" fill="#a6a6a1"/>
  <path d="m182.01,85.458c8.79-13.691 15.13-23.491 20.463-38.91-1.298,6.34-2.597,12.68-3.892,19.022l11.673-19.022c-2.017,7.061-4.036,14.123-6.054,21.038 4.323-5.042 8.649-9.942 12.682-15.13-2.737,7.781-5.763,15.564-8.79,23.491 5.044-6.485 9.945-12.828 14.987-19.313-4.324,8.358-8.358,16.574-12.537,24.932-.721,3.892-1.44,7.781-2.162,11.819 2.883.143 5.765.286 8.358.432-2.305,1.584-4.755,3.314-7.205,4.898 3.027-.575 6.196-1.298 8.936-1.873-2.308,1.873-5.044,3.746-7.638,5.763 2.305.434 4.755,1.009 6.917,1.443-2.45.432-4.898.864-7.494,1.441 .145,1.152.288,2.448.577,3.746h9.511c-3.025,1.152-5.908,2.307-8.937,3.603 3.315,1.874 6.343,3.747 9.657,5.62h-9.225c-1.439,1.443-3.026,3.028-4.467,4.612-.575,6.051-1.009,11.961-1.585,18.015-.577-4.324-2.882-6.774-3.313-11.098-2.02,2.45-2.162,3.025-4.035,5.187 .432,5.044.863,9.943 1.296,14.989-1.441-3.892-2.883-7.783-4.178-11.532 .143,6.631.288,13.26.432,20.034-1.153-6.199-2.162-12.394-3.171-18.59 1.154-6.774 2.305-13.834 3.459-20.751 2.017-8.504 4.035-17.006 6.197-25.507 2.448-5.765 5.188-11.673 7.781-17.727-2.594,3.028-5.333,5.908-7.781,8.791 .72-3.747 1.441-7.638 2.161-11.528-1.729,1.873-2.882,3.603-4.469,5.331-1.584,3.46-3.746,6.774-5.188,10.232 1.873-7.35 4.035-14.844 6.054-22.339-3.026,4.469-5.91,8.793-8.937,13.117 1.153-3.46 2.308-6.917 3.604-10.377-4.48,5.19-8.94,9.659-13.7,16.145z" fill="#7f7f7f"/>
  <path d="m190.51,21.615c-15.996-5.332-30.984-12.825-48.278-10.374-11.384,1.584-29.253,5.333-36.891,10.374-7.492,4.901-20.032,13.98-20.032,13.98-11.811,13.69-17.722,22.914-20.602,38.045 0,0 9.222-16.86 13.4-20.897 4.18-3.89 9.222-10.661 9.222-10.661s3.46,4.898 5.91,4.61 16.571-12.971 16.571-12.971-.143-8.501 11.818-12.105 15.131,1.298 21.327,4.613c6.198,3.314 30.408,7.638 33.724,6.628 6.053-.144 10.376,0 10.376-5.908-10.52-1.873-21.185-3.889-31.703-5.765 5.75-6.197 27.8-1.153 35.15.431z" fill="#99938d"/>
  <path d="m204.06,22.048s9.8-8.068 15.564-9.366c6.34-1.295 21.761-7.063 21.761-7.063s11.24-5.042 17.73-5.619 11.673.864 13.402,1.441c1.584.575 8.647,4.035 17.149,6.485s27.38,4.467 27.38,4.467-10.231-.721-16.571-1.007-12.106-.291-18.013-3.028c-6.199-2.594-13.549-6.628-18.446-6.483-4.901.141-14.124,3.601-19.743,6.051-5.77,2.449-40.21,14.122-40.21,14.122z" fill="#999"/>
  <path d="m308.68,35.164c-7.352-3.892-14.7-7.783-21.906-11.818-1.009-1.152-1.873-2.305-2.737-3.458 6.917-2.596 11.673-2.162 18.591,0-1.441-1.298-2.739-2.596-4.035-3.746 0,0-8.504-2.021-12.827-1.298s-28.102,4.324-28.102,4.324-9.223,3.458-11.384,5.62c-2.448,2.305-10.521,16.86-10.521,16.86-1.296,4.323-2.451,8.647-3.603,13.116 1.009,2.448 2.161,4.896 3.313,7.493 1.01-2.018 2.019-3.892 3.028-5.908 .288-3.171.721-6.485 1.152-9.8 .721,4.755 1.441,9.511 2.161,14.267l6.918-5.188c-1.298,3.314-2.45,6.485-3.748,9.799 2.162-1.729 4.323-3.314 6.342-5.043-1.587,2.882-3.025,5.765-4.612,8.79 3.604,4.18 7.063,7.638 11.24,11.098 3.604-3.892 7.35-7.783 10.952-11.673-2.304,5.187-4.611,10.375-7.06,15.417 2.448.578 4.898,1.012 7.35,1.444 2.304-6.199 4.611-12.539 7.06-18.881-2.162-.864-4.323-1.584-6.34-2.448-1.441,1.441-2.594,2.882-3.892,4.324 .721-3.026 1.441-6.054 2.162-8.934-2.017,1.152-4.178,2.448-6.054,3.601 .577-3.025 1.298-6.194 1.876-9.365-1.876-.578-3.604-1.298-5.619-1.875-2.02,1.441-4.038,2.884-6.055,4.18 3.315-6.342 6.629-12.104 10.664-18.015-.721-2.448-1.441-4.898-2.162-7.492-4.898,2.018-9.8,4.035-14.555,6.196 5.044-13.257 17.869-15.564 30.84-15.708 1.728,1.153 3.458,2.305 5.188,3.458-5.188,1.73-10.377,3.46-15.564,5.044-.288,2.451-.432,4.901-.575,7.35 3.026.866 6.052,1.584 9.079,2.307 1.873,2.448 3.89,4.755 5.908,7.204 2.162.721 4.467,1.584 6.771,2.45-.863-2.737-1.873-5.476-2.594-8.215 2.308,1.298 4.756,2.594 7.206,3.892-.863-2.305-1.873-4.61-2.882-6.917 2.594,1.875 5.332,3.46 8.069,5.188-1.439-2.737-2.594-5.619-3.89-8.501 4.467,1.298 9.079,2.45 13.547,3.605 .43-1.016.86-1.735 1.29-2.744z" fill="#99938d"/>
  <path d="m309.12,72.198s8.645,13.26 10.518,17.294c3.892,8.215 5.044,18.733 6.342,27.669-5.907-.864-11.817-1.875-17.726-2.739-.289-3.457-.432-6.917-.575-10.231-1.152,3.027-2.308,6.339-3.314,9.368-2.161-1.875-4.037-3.747-6.054-5.622 0,0 3.46-5.333.289-9.079-3.028-3.458-7.206-10.521-7.206-10.521-.578-2.88-1.01-5.619-1.441-8.502 1.873,2.308 3.892,4.469 5.765,6.631 .432-2.885.864-5.911 1.153-8.793 3.025,6.34 5.619,12.684 7.781,19.456 1.009-3.746 1.875-7.349 2.739-10.954 1.872,2.162 3.603,4.324 5.476,6.342-1.45-6.63-2.6-13.548-3.75-20.322z" fill="#99938d"/>
  <path d="m301.62,43.09c2.019,6.051 4.181,11.959 6.34,18.013 2.739,5.619 5.479,11.384 8.216,17.005-.864-5.044-1.874-10.088-2.883-15.132-2.017-4.035-4.178-8.072-6.34-12.104 2.881,3.891 5.765,7.781 8.501,11.672-.577-3.892-1.152-7.64-1.729-11.529-1.729-4.035-3.457-8.07-5.33-12.248l7.781,13.835c1.298,7.636 2.594,15.418 3.892,23.2 2.016,9.943 5.619,19.167 8.79,28.678 7.492,1.01 14.267,4.178 21.904,5.188 4.898,1.153 11.385-.432 16.428.721-3.025-3.46-6.051-6.774-8.933-10.086-1.587-2.594-3.316-5.333-4.756-7.927 1.296.287 2.448.719 3.601,1.152-1.729-2.305-3.313-4.466-5.042-6.628 1.729.286 3.601.721 5.331,1.007-1.73-1.73-3.457-3.169-5.044-4.756l2.594-6.485c-1.007-.718-1.874-1.439-2.881-2.305 1.296-1.153 2.737-2.451 4.178-3.604h-6.34c-1.875-1.441-3.748-2.882-5.332-4.467 .577,2.308 1.441,4.756 2.161,7.063-.72,2.448-1.584,4.899-2.161,7.204 0,0-3.746,3.458-4.899,0-1.298-3.601-2.45-12.682-2.45-12.682 1.441-2.305 2.736-4.61 4.035-7.06 1.873.72 3.746,1.441 5.476,2.162h4.756c-.577-1.441-1.441-4.035-2.017-5.333-1.443.288-2.45,1.875-3.604,2.161 0,0-6.772-5.619-8.646-5.619-7.206,0-10.088-8.07-10.81-13.548-6.773-2.162-13.545-4.321-20.174-6.339-1.6,2.884-3.19,5.91-4.63,8.794z" fill="#7f7f7f"/>
  <path d="m325.26,29.542c10.231-3.458 20.752-2.45 27.092,6.631 3.603,5.188 5.044,10.664 5.044,10.664h-10.807s-5.044-7.35-9.8-8.07c-4.901-.578-13.691-4.755-13.691-4.755 .58-1.442 1.45-3.029 2.17-4.47z" fill="#99938d"/>
  <path d="m362 37.326s2.017 10.52 4.468 12.823c2.45 2.453 7.781 4.756 7.781 4.756v-5.474c-2.162-2.451-4.322-5.045-6.34-7.495-2.01-1.439-3.89-3.026-5.91-4.61z" fill="#99938d"/>
  <path d="m361.57,50.872c-.432,1.73-1.009,3.459-1.44,5.187-2.019.721-3.893,1.298-5.908,2.017 1.007,1.298 2.016,2.596 2.88,3.892-.864,1.152-1.873,2.162-2.88,3.171 1.296,1.73 2.594,3.314 4.035,4.899 1.007-.575 2.159-1.153 3.313-1.873 0,0 3.89,5.189 5.042,9.945 1.299,4.756 2.739,6.918 2.739,6.918 1.73-1.012 3.314-1.876 4.899-2.883-1.439,2.448-3.169,4.898-4.61,7.349 2.305-.723 4.61-1.441 6.771-2.019-2.017,1.587-3.89,3.458-5.762,5.333 .288,1.585.72,3.172 1.151,4.901 2.883-.723 5.908-1.587 8.791-2.308-2.162,1.874-4.181,3.892-6.342,5.908 .723,2.594 1.442,5.188 2.161,7.781-.143,1.73-.432,3.171-.432,4.755-2.162-.864-4.467-1.728-6.629-2.594 5.044,5.19 10.231,10.666 15.422,15.853 3.312,2.308 6.771,4.756 10.231,6.918-1.299-2.017-2.596-4.324-4.037-6.486 1.298-.577 2.594-1.295 4.037-2.017-1.587-.432-3.317-.864-4.901-1.154v-3.601c.864-.577 1.729-1.298 2.739-1.873-2.45-.434-4.758-.866-7.063-1.154 2.162-1.73 4.467-3.315 6.774-4.899-3.172-.288-6.486-.577-9.8-.864 2.305-2.884 4.467-5.765 6.774-8.504-3.317.432-6.632,1.009-9.946,1.296 2.017-2.016 3.892-4.033 5.908-6.051-.718-2.736-1.295-5.188-2.017-7.783-2.307.434-4.611.866-6.773,1.443 2.882-2.882 5.91-5.476 8.79-8.361-2.017-.718-3.892-1.439-5.908-2.016 1.01-2.305 2.162-4.467 3.172-6.628-3.172.432-6.485.72-9.801,1.152 1.297-1.584 2.451-3.169 3.747-4.755-2.017.577-4.179,1.152-6.051,1.586 .288-1.443.72-3.028 1.007-4.612-5.477-3.028-6.34-6.054-6.34-11.962-1.29-1.889-2.44-3.905-3.74-5.921z" fill="#7f7f7f"/>
  <path d="m374.98,134.17c1.007,13.834 2.305,27.956 3.457,42.222-.144,11.529-.289,23.202-.432,34.731 1.007,11.239 2.162,22.48 3.746,33.578-1.441,1.441-2.882,2.882-4.467,4.324 2.594.863 5.477,1.584 8.07,2.161-.864-1.154-1.874-2.45-2.883-3.603 0,0 6.054.432 4.901.863-1.155.289-2.883-3.746-2.883-3.746 2.017.143 4.035.289 5.908.432-1.299-.864-2.594-1.873-3.892-2.737 .432-2.451 1.009-4.901 1.584-7.206-.863-3.026-1.584-6.051-2.305-9.079 1.152-1.441 2.305-2.882 3.603-4.323-.721-2.737-1.298-5.477-2.016-8.358 .286-2.594.575-5.333 1.007-7.927-1.441-.432-2.737-.719-4.178-1.01 2.016-.72 4.034-1.295 6.051-1.87-.286-1.298-.575-2.739-.864-4.038-2.161-.577-4.323-1.295-6.485-1.873h9.512c0-1.873-.144-3.746-.144-5.476-2.45-.432-4.756-1.009-7.061-1.584 2.737-1.155 5.619-2.451 8.645-3.749-2.45-1.439-4.756-3.026-6.917-4.61 1.873-.72 3.892-1.584 5.765-2.307-.143-1.73-.288-3.458-.432-5.188-1.873-.287-3.892-.575-5.765-.864 1.441-1.009 3.028-1.873 4.611-2.882-.288-.864-.576-1.73-.865-2.739-1.296.146-2.594.289-3.746.432 1.873-3.744 4.035-7.781 6.196-11.384-5.92-7.47-11.83-14.97-17.73-22.17z" fill="#7f7f7f"/>
  <path d="m67.3,65.713c-2.45,7.495-7.063,14.412-8.504,24.355 0,0 2.162,39.344 2.162,40.783 0,14.699-10.231,32.282-9.943,56.78 2.162-8.356 3.892-12.248 5.908-20.606 7.927-17.727 7.927-29.111 9.079-44.821 9.079,18.015 16.428,35.164 25.796,53.179 2.305,10.809 6.342,33 7.926,43.809 3.171-2.451 8.213-13.26 11.384-15.708 .575-2.885 3.603-4.324 1.873-8.936-1.152-3.169-3.603-7.35-4.755-10.519 4.612,3.169 9.942,9.943 14.555,13.258 0,0 10.375-17.438-2.162-21.473-3.171-3.892-17.724-20.463-17.724-20.463-5.91-9.802-11.962-19.454-18.015-28.964v-7.641c1.874.432 3.603.864 5.331,1.155 0,0 3.316,13.4 7.352,17.147 4.035,3.892 14.267,13.834 14.267,13.834-7.784-16.428-16.14-28.678-16.717-47.123 0,0-9.368-1.154-10.809-13.691-1.441-11.384 1.152-22.336 2.739-33.72-2.162,4.323-4.469,8.501-6.774,12.682-.575-2.019-1.152-4.18-1.873-6.342v18.879c-1.152-2.882-2.305-5.908-3.458-8.79 .432,6.051.864,12.105 1.296,18.301-2.162-2.88-4.324-5.765-6.485-8.79 0,4.755.289,9.511.289,14.123-7.649-12.684-4.91-15.71-2.748-30.699z" fill="#7f7f7f"/>
  <path d="m93.239,64.849s-1.152,11.961 1.296,20.32c8.936,30.695 32.426,59.948 53.899,83.728 12.537,4.612 23.921,2.594 37.324-.577 3.171-15.563 6.628-31.126 9.942-46.548l8.647-30.695c-2.739,3.603-5.333,7.35-8.07,11.095 .432-6.485 1.007-13.111 1.441-19.597-3.46,7.783-7.206,15.273-10.81,23.057-.863,21.618-12.824,39.917-37.756,24.355-20.464-13.257-24.786-31.561-38.765-48.853-2.44-2.875-17.141-16.278-17.141-16.278z" fill="#99938d"/>
  <path d="m189.07,155.21c6.052,14.99 4.756,22.193 2.883,38.621-3.46,17.583-5.619,26.085-15.419,41.072-1.73,1.587-3.317,3.314-5.044,4.756h-5.476c-1.442,2.594-2.739,5.044-4.036,7.638 1.008,7.784 1.874,7.927 6.916,13.689 .434-1.585.866-3.026 1.154-4.467 1.153.578 2.305,1.155 3.602,1.874-1.439-1.874-2.881-3.601-4.322-5.331-5.622-1.009-4.324-9.368 1.009-10.521 0,0 4.61-1.873 9.798-5.188 5.044-3.458 12.106-20.895 12.106-20.895 4.467-18.881 9.223-38.189 14.122-57.068 1.154,1.728 2.307,3.601 3.459,5.331 .289-1.73.577-3.603.866-5.331 3.457,1.873 6.629,3.889 9.943,5.762-3.893-4.178-7.639-8.358-11.529-12.537 3.171,1.441 6.196,2.882 9.222,4.469-7.492-6.054-10.663-11.098-12.537-21.907-2.736,8.072-3.313,16.717-4.323,25.364-1.152,1.584-2.305,3.459-3.458,5.188 .287-4.467.722-8.791 1.008-13.114-1.296,3.892-2.448,7.927-3.747,11.819-2.15-3.17-4.17-6.2-6.19-9.22z" fill="#99938d"/>
  <path d="m257.24,152.04s-4.035,17.151-3.746,19.745 1.584,32.136 1.584,32.136l-.721,30.84v14.41l-3.314,9.657s.577,3.314 3.314,4.321 6.774,1.729 6.774,1.729l-3.314-3.025s-4.035-1.152-2.739-4.323c1.441-3.171 6.343-3.604 6.343-3.604l3.457-3.891-3.746-5.62-1.873-9.943-2.01-82.45z" fill="#7f7f7f"/>
  <path d="m347.02,14.844s8.213-.432 12.394,2.882c4.035,3.314 8.358,14.41 8.358,14.41s7.492,14.987 9.077,17.149c1.729,2.018 3.891,7.64 3.891,7.64s-3.313-4.755-6.628-9.656c-3.314-5.044-10.375-19.6-10.375-19.6s-3.316-6.917-7.783-8.934c-4.33-2.161-8.94-3.891-8.94-3.891z" fill="#999"/>
  <path d="m371.08,264.15s.432-2.737 2.45-3.603c2.737-1.153 1.296-5.619.863-7.636h3.46c1.439,2.594 1.008,4.324.864,7.061 2.016-1.587 3.169-3.026 3.169-5.765 .723.578 1.298,1.009 2.162,1.584 .723-.718 1.586-1.296 2.45-1.874-.289-.575-.578-1.295-.864-2.016 1.008.578 1.873,1.009 2.883,1.441 .143-1.009.143-2.162.432-3.171h1.441c.575-1.01 1.295-1.874 1.873-2.883-1.873-2.45-1.298-1.152.721-3.025 1.44-1.298 3.457-14.267 4.323-17.87-1.01,10.375-1.01,21.47-6.917,30.406-2.019,3.028-9.368,5.333-12.825,6.631-2.13.29-4.3.44-6.46.72z" fill="#4d4d4d"/>
  <path d="m100.3,196.85c-.721,18.158-1.442,36.749-2.305,55.052-.721,3.314-1.441,6.629-2.162,9.943 .289,1.296.721,2.451 1.009,3.603 4.61,1.009 9.366,2.307 14.121,2.448-2.448-1.295-4.755-2.594-7.204-4.033 3.025-2.593 4.61-2.45 7.204.432 3.171-3.749 3.317-1.874 7.063-1.155 .432-1.007.865-2.016 1.153-3.168 .866-.144 2.305-.721 3.028-1.01-.579-1.728-1.444-3.603-2.162-5.476 0,0-1.73,4.467-2.596,5.476-4.755,4.612-12.104.146-12.969-4.755 1.728-4.612 8.213-23.202 3.89-30.983-.287-2.017 2.307-17.726 1.875-21.33-2.74-1.72-7.2-3.45-9.94-5.04z" fill="#7f7f7f"/>
  <path d="m112.55,164.28s4.036,5.043 4.467,7.063 1.583,7.492 2.594,8.934c1.152,1.441 7.062,6.774 7.062,6.774l4.179-11.386 2.451-8.645-5.044-12.828s2.162,12.25 1.442,14.269c-.865,2.016-2.738,3.025-2.738,3.025s-3.459-6.053-6.053-8.647c-2.451-2.451-6.339-5.62-6.339-5.62l8.07,10.375 2.305,6.197-11.385-12.248 8.934,12.537-7.35-7.493-2.59-2.28z" fill="#7f7f7f"/>
  <path d="m108.37,47.123c5.333-8.502 13.548-12.68 22.481-16.715-3.89,2.88-7.638,5.908-11.527,8.791l18.155-6.486c-4.034,2.883-8.07,5.622-11.961,8.359 14.555-4.324 23.202-7.926 38.767-6.054-25.65,4.035-44.386,6.486-44.386,35.307-5.619-10.666-3.891-16.717.863-27.38-7.349,8.79-11.527,14.844-11.527,26.517-1.298-14.124-1.73-15.421 6.339-26.949-2.16,1.153-4.89,3.603-7.2,4.61z" fill="#99938d"/>
  <path d="m124.37 59.519c3.602-14.558 19.167-18.59 31.991-22.914-8.501 5.619-14.409 9.943-20.319 18.013 7.927-7.638 15.565-9.657 25.364-12.394-8.936 6.197-15.708 11.241-22.913 19.311 3.603-6.197 8.501-11.527 14.7-15.419-9.367 4.324-13.98 7.638-21.473 14.699 0 0 3.025-8.213 5.474-11.241 2.308-3.171 8.215-7.638 8.215-7.638-9.94 5.043-14.4 8.647-21.03 17.583z" fill="#99938d"/>
  <path d="m80.557,198.73c-1.873,2.448-3.889,4.899-5.908,7.492 1.73-.72 3.314-1.73 4.898-2.593-2.162,3.314-4.467,6.485-6.771,9.8 2.162-1.296 4.323-2.594 6.34-4.035-2.737,4.901-5.765,9.511-8.79,14.412 2.305-2.45 4.612-5.044 6.917-7.495-3.746,7.349-9.943,17.006-8.215,25.507 1.009-7.783 3.46-10.809 9.8-15.564 1.873-1.007 3.892-1.73 5.622-2.594-4.038.723-7.35,2.019-10.809,4.181 0,0 3.459-7.927 5.765-10.375 2.162-2.162 7.781-5.91 7.781-5.91-.289-.289-.432-.575-.721-1.009-2.162,1.009-4.467,1.873-6.772,2.737 1.874-3.169 3.603-6.195 5.474-9.223-1.728.723-3.312,1.441-4.899,2.162 1.155-1.873 2.162-3.891 3.171-5.622-.867-.74-1.874-1.32-2.883-1.89z" fill="#666"/>
  <path d="m352.78,63.265c-2.306.432-3.025.864-5.331.287l1.73-1.296c-1.587.432-3.171.721-4.756,1.009 1.728.718 3.746,1.584 5.476,2.305 1.442,2.305 2.881,2.882 4.899,1.007 .575.578 1.298,1.155 1.873,1.732-.14-2.019-1.73-4.612-3.89-5.044z"/>
  <path d="m342.55,65.281c4.901-.866 4.47,7.495 11.819,4.901-1.01.575-1.874,1.009-2.883,1.584-2.162,1.152-8.215-2.305-10.521-3.747 2.883.864 5.188,1.584 7.927,2.737-2.03-1.872-4.19-3.745-6.35-5.475z"/>
  <path d="m344.57,60.383c3.313-3.749 7.926-5.188 12.25-2.594-1.155,0-2.308.143-3.314.143 2.882.721 3.746,2.594 4.467,5.188-2.308-3.46-4.612-4.467-8.936-4.467-1.59.575-3.03,1.152-4.47,1.73z"/>
  <path d="m355.81,68.741c1.296,1.873 1.296,2.594.289,4.466 .721-.432 1.296-.864 2.017-1.298v-2.016c-.73-.289-1.45-.72-2.31-1.152z"/>
  <path d="m344.71,63.119c-1.728.578-3.603,1.296-5.33,1.873 .574-.432 1.152-.864 1.873-1.441-2.883-.575-3.171.432-4.901,2.307 0-3.171 2.883-4.324 5.19-5.333-.435.289-.866,1.441-1.298,2.019 1.44.143 3.03.432 4.47.575z"/>
  <path d="m359.26,61.68c-.433,1.439-.864,3.026-1.296,4.467 .432,1.007 1.009,1.873 1.585,2.736 .01-2.306-.28-4.9-.28-7.203z"/>
  <path d="m339.09,68.02c.432,2.737 7.495,5.909 9.8,7.35 .432,1.009 1.009,1.873 1.584,2.882-3.313-.289-4.755-2.737-7.492-4.467-1.875-1.297-5.622-2.882-5.622-2.882 4.182,2.594 7.207,5.476 10.664,8.502 1.298.289 2.45.577 3.46.866 1.296-.289 2.451-.577 3.746-.866-3.169-1.152-3.457-1.584-5.188-4.467 1.299,0 2.594.143 3.893.143-5.33-1.585-10.52-3.314-14.84-7.061z"/>
  <path d="m316.18,52.169s1.152,14.266 2.45,21.759c1.441,7.492 7.78,24.065 7.78,24.065s-3.603-14.266-3.603-19.742-.143-22.193-.143-22.193c-2.162,8.215-1.01,16.86-.721,25.362-3.18-9.222-3.61-19.74-5.77-29.251z"/>
  <path d="m328.28,57.644c-4.323,9.079-2.306,19.599-1.874,29.398 0-6.485.145-13.113.29-19.599 .43-3.169 1.01-6.485 1.58-9.799z"/>
  <path d="m330.88,57.644s-3.314,9.511-3.314,11.672c0,2.019.434,12.971.434,12.971 .433-5.765.575-11.962 1.585-17.581 .144,2.594.432,5.331.721,8.07 .432-5.765 1.152-11.241 2.45-16.717-.72.575-1.3,1.007-1.87,1.585z"/>
  <path d="m332.03,66.868c-.146,8.358-.289,16.574.864,24.93 0-3.314 0-6.34.288-9.511-.43-5.187-.86-10.377-1.15-15.419z"/>
  <path d="m334.05,70.902c.288,5.188-.144,12.68 2.45,17.436 1.153.291 2.305.723 3.603,1.298 2.883-.72 7.781-3.746 10.808-1.729 1.154.864 3.603,2.594 3.603,2.594-1.296-1.439-2.736-3.026-4.178-4.465 1.584-1.298 5.907,3.169 7.061,4.178-1.153-1.584-2.45-3.028-3.457-4.612-3.317-4.755-10.378,3.892-15.565-.143-2.44-1.876-3.74-11.242-4.31-14.557z"/>
  <path d="m340.68,74.794c2.45,1.871 4.755,3.889 7.205,5.762 2.594,0 5.333.146 7.927.146-1.584.432-3.171.864-4.756,1.152 1.585.575 3.172,1.153 4.756,1.728-1.872-.432-3.746-.718-5.621-1.153-2.594.721-5.042,1.584-7.639,2.308 1.876-1.009 3.604-2.019 5.477-3.026-3.18,0-5.91-4.468-7.35-6.917z"/>
  <path d="m340.82,91.654c5.907,2.883 8.79,7.061 15.418,8.215-1.297.141-2.449.432-3.746.718 1.01.866 1.874,1.73 2.737,2.739h4.324c-.864.287-1.585.575-2.162.864 1.44,1.007 3.171,1.873 4.756,2.882-1.585.146-2.594,0-4.179-.288 0,3.603 13.114,2.018 14.986,7.783-1.44-1.154-9.222-3.171-8.504-.289 1.588,7.784 18.161,20.895 24.501,24.787 11.24,7.206 23.921,11.384 36.46,15.563 3.171.866 4.611,1.441 4.178-1.871 2.739,1.584 1.587,3.312-.575,3.747-11.241-3.314-21.904-7.063-32.714-11.529-5.188-2.737-10.231-5.477-15.419-8.359 0,0 1.73,4.469 1.874,5.333 .143.721 13.545,7.781 15.13,15.565 .577,1.584 1.155,3.168 1.729,4.898v4.899c-4.323-8.79-11.672-18.59-23.634-16.571-3.458-13.114-5.908-25.942-13.979-37.18-1.729,2.162 1.01,4.466.287,6.342-1.296,3.169-5.906-2.307-6.771-3.171 .288,1.439-9.511-2.885-10.81-5.046-4.323-1.871-9.653-2.303-12.391,1.875-1.298.432-2.596.863-3.749,1.295 .144-6.197-.432-13.114-2.736-18.876 2.017,3.314 5.188,6.339 9.365,6.339-1.296-1.584-2.448-3.025-3.746-4.61 3.604,2.734 7.638,5.906 12.536,5.042-1.152-3.026-2.736-4.901-4.609-7.35 1.296.721 2.594,1.585 3.89,2.308-.722-1.443-1.296-2.885-2.017-4.323 1.009.718 2.017,1.438 3.025,2.303-1.16-1.42-2.31-2.716-3.46-4.014z"/>
  <path d="m375.26,148.29c.721,6.631 1.873,13.259 2.019,20.031 .289,1.73.577,3.314 1.009,5.044-.72,2.594-1.298,3.458-.288,5.91-.721,3.026-1.154,3.746 0,6.626-.866,3.316-1.298,4.324-.289,7.64-.721,3.458-1.009,4.033.289,7.349-1.154,2.737-1.729,3.026-.289,5.62-1.152,3.028-1.298,2.739.289,5.476-.432,1.009-.866,2.019-1.154,3.025 .577.723 1.154,1.298 1.875,2.019-.433,1.152-.721,2.451-1.01,3.746 .432.289.864.578 1.296,1.01-.575.866-1.007,1.873-1.584,2.736 .72.432 1.441,1.01 2.307,1.444-.434.575-1.009,1.295-1.441,2.016 .433.721 1.008,1.586 1.441,2.451-.434.575-1.009,1.007-1.441,1.438 .576.578 1.008,1.155 1.585,1.587-.289.866-.577,1.584-.866,2.451 .723.432 1.298,1.009 1.875,1.441-1.152,3.025-1.298,2.737.287,5.619-1.728,1.298-1.728,2.737-2.017,4.756 1.152-.143 2.162-1.584 3.46-1.728 0-2.161 0-3.891-.289-6.053l5.188-.864c-2.736-.866-4.035-1.298-5.91-3.171 1.155-.432 2.597-.866 4.037-1.01-1.152-.143-2.45-.289-3.46-.432-.432-1.152-.577-2.451-.863-3.603 1.152-.289 2.305-.577 3.46-.72-1.444-.144-4.038.432-3.893-2.019 .287-2.16 1.73-2.16 3.747-2.448-3.028-.289-4.324-.432-3.893-3.458 1.299-.146 2.308-.434 3.604-.577-2.017-.289-5.188-1.009-3.604-3.603 1.876-.721 3.604-1.152 5.622-1.584l-6.343-.434c-1.873-2.448-.143-3.458 2.162-4.035-.863-.144-1.873-.575-2.736-.864-2.596-3.892 3.171-3.892 5.765-3.892-1.876-.289-3.748-.72-5.622-1.152-1.009-2.45-.72-2.882 1.585-4.324-2.305-3.025-3.026-5.333.577-7.349-2.882-2.019-2.305-3.458-1.584-6.485-.578-3.171 4.467-2.737 6.34-2.305-.144-.432-.144-.866-.144-1.152-2.161-.146-4.323-.291-6.485-.432-.577-2.452-.144-3.892 2.739-3.892-2.308-1.729-4.901-4.755-.577-5.333-3.171-.864-2.306-4.035-1.873-6.34 .72-.146 1.584-.432 2.45-.578-.866-.577-1.73-1.152-2.45-1.73 0-1.009-.289-2.016-.289-3.171 .432-.143 1.009-.287 1.441-.432l-1.441-1.441c.143-.864.289-1.873.432-2.593 .864-.144 1.73-.289 2.451-.289-3.892-1.15-4.324-5.765-5.045-9.222-.89-.2-1.76-.49-2.48-.78z"/>
  <path d="m384.05,162.12c3.316-.721 6.342-1.873 9.367-.144-3.46.43-6.05.43-9.37.14z"/>
  <path d="m384.2,167.6c3.025-.72 6.051-.432 9.222,0-3.46.29-6.05.72-9.22,0z"/>
  <path d="m381.75,173.22c3.604,1.439 6.629.864 10.088-.146-3.32.01-6.63.15-10.09.15z"/>
  <path d="m279.14,30.263c12.682.432 18.879,1.009 29.688,8.072 0,0-2.45.432-1.873,2.448 .575,1.875 3.892,6.054 4.467,9.943 .575,3.746 1.873,7.495 1.873,7.495-4.035-3.89-6.771-8.936-10.375-13.26 0,0 3.746,6.485 3.746,9.511 0,3.171 5.188,7.495 6.197,12.104 1.009,4.615 3.025,10.955 3.025,10.955-4.035-6.054-7.638-11.529-10.663-18.013-.289-1.875-.577-3.892-.722-5.765-1.298-3.746-2.736-7.352-4.034-11.096 0,0-3.746-4.901-6.918-6.917-3.19-2.02-14.43-5.477-14.43-5.477z"/>
  <path d="m229.71,49.717s-1.586,5.91 0,7.927c1.729,2.016 4.61,5.476 4.61,6.485s2.019,4.469 3.028,7.063c1.873,4.898 6.917,9.943 10.518,13.835 3.028,6.339 6.917,8.79 14.123,6.917 0,0 .866,8.499 7.784,9.077 7.349.578 8.358-1.15 11.815-5.906-.289,2.303-.577,4.61-.863,6.915 2.88,4.467 7.349,5.765 11.959,7.783-1.152,4.178-2.306,8.502-3.313,12.825 1.296,12.394 1.874,20.896-.146,36.603 0,0-6.771-7.781-10.952-7.781-15.275,0-16.859,4.178-25.508,15.708-.432-3.603-.865-7.492-1.297-11.098-5.477,1.298-10.953,2.739-16.429,4.181 3.025-5.765 11.387-9.945 10.81-12.971-.578-3.025-3.314-1.871-3.028-5.042 .146-3.028 7.352-12.107 7.352-12.107s4.034-3.312 4.034-6.772-6.773-3.171-10.231-5.621-2.45-5.331-5.621-7.781-13.546-4.035-17.869-11.098c-4.035-7.061-4.035-8.645-2.594-12.682 1.298-4.033 5.188-22.193 6.917-23.921 1.584-1.584 2.594-3.028 2.594-3.028 .288-2.017.288-4.032.432-6.051 .59-1.156 1.31-2.308 1.89-3.463z"/>
  <path d="m200.02,76.811s-4.466,13.257-5.908,19.311c-1.297,5.908-3.171,10.521-2.45,15.13s2.019,10.952 2.019,10.952-6.342,23.346-7.349,25.939c-2.162,6.485-6.774,13.259-10.088,19.313-1.442.72-2.739,1.584-4.036,2.448 .72.577 1.728,1.443 2.594,2.162 5.762-.287 11.672-.575 17.437-.718 1.153-3.46 2.162-6.917 3.17-10.523 0,0-2.017,4.181-2.883,2.162-.864-2.162-3.026-8.934-1.728-10.229 1.152-1.443 3.025,1.871 3.025,1.871-.721-4.756-2.017-10.518 1.009-14.841 .722,3.168 1.441,6.339 2.306,9.511-.289-4.612-.433-9.079-.575-13.546 .575-.432 1.44-.721 2.162-1.152-.577-.577-1.299-1.441-2.02-2.308 1.442-.577 3.026-1.15 4.468-1.728l-3.893-2.594c2.451-3.459 5.622-6.631 8.504-9.656-2.594,1.586-5.044,3.314-7.637,5.044 0,0-.578-8.936.863-11.098 1.298-1.873 3.025-1.873 2.45-6.771-.432-5.047 2.883-11.098 2.883-11.098 .288-2.448 1.009-4.756 1.44-6.917-2.594,5.333-5.188,10.809-7.781,16.428-.865,4.035-1.872,8.072-2.739,11.961 0,0-1.152-5.333-.145-12.394 .75-7.04 4.92-26.639 4.92-26.639z"/>
  <path d="m199.45,142.52c2.308,9.225-.144,18.736-3.169,27.526 .57-9.37 3.17-18.3 3.17-27.53z" fill="#333"/>
  <path d="m201.75,136.18s1.298,8.934 1.298,13.257-2.162,13.98-2.162,13.98c1.728-5.044 3.601-9.368 4.033-14.555 1.009,2.737 2.161,5.476 3.171,8.358-.144-2.305-.575-4.758-.864-7.061-1.873-7.063-2.739-14.266-3.746-21.183v12.391c-.57-1.73-1.15-3.46-1.73-5.19z" fill="#333"/>
  <path d="m191.95,166.88c-.575,13.691.288,29.255-3.314,42.369-2.305,8.215-7.927,18.302-7.927,18.302-3.314,4.321-6.339,7.349-9.943,10.663-7.637,0-7.925,6.629-8.79,12.107 1.008,2.594 2.594,6.483 4.467,8.213-2.739-8.07-3.459-17.292 1.585-17.87 2.449-.289 5.186-.432 6.053-1.152 8.213-8.072 13.114-17.438 16.282-28.39 .866-3.459 1.587-6.917 2.451-10.522 1.009-.718 2.161-1.439 3.316-2.159-1.012-.721-1.876-1.298-2.885-1.874 .577-.723 1.009-1.441 1.586-2.018-.146-.866-.432-1.73-.721-2.594 .721-.432 1.442-1.007 2.162-1.584 0,0-2.162-1.009-2.162-2.308 0-1.152.289-9.797.289-9.797 .719-1.443 1.296-2.882 1.873-4.323-1.17-2.6-2.46-4.91-4.34-7.07z"/>
  <path d="m131.72,133.88s6.051,9.801 8.356,12.106c2.308,2.305 11.241,11.098 11.241,11.098-5.476-3.892-10.807-7.64-16.284-11.532 6.053,5.765 12.538,11.675 18.734,17.438 .289-1.15.576-2.305.865-3.312 1.44,1.439 2.882,3.025 4.323,4.467-.432-1.73-1.006-3.46-1.583-5.333 1.872,2.016 3.746,4.178 5.619,6.197-.722-1.73-1.442-3.603-2.162-5.331 1.73,1.439 3.459,2.737 5.19,4.178-.722-1.729-1.442-3.314-2.162-5.044 1.874,1.73 3.891,3.171 5.765,4.755 1.152.146 2.305.146 3.457.289 2.594-1.009 5.333-2.016 8.07-3.028 .722-1.873 1.441-3.744 2.306-5.765-1.438,1.009-3.025,2.164-4.467,3.171-2.882-2.737-5.62-5.474-8.502-8.213 2.162,3.026 4.324,5.909 6.486,8.934-1.873-1.007-3.749-2.162-5.621-3.169 1.009,1.298 1.872,2.593 2.882,4.035-.865.144-1.585.289-2.305.432-3.171-3.46-6.485-6.917-9.657-10.377 2.308,3.46 4.758,7.208 7.207,10.666 0,0-2.594-.721-4.899-3.314-2.308-2.45-7.351-7.495-7.351-7.495 1.875,3.46 3.748,7.206 6.053,10.377-3.604-2.883-7.35-5.911-10.809-8.936 2.162,2.594 4.323,5.044 6.485,7.638-4.323-3.171-8.933-6.342-12.536-10.375-1.442-1.586-5.333-6.485-5.333-6.485 3.314,2.594 7.062,5.622 10.23,8.356-1.295-1.871-2.594-3.601-3.891-5.474 2.885,2.448 5.767,4.899 8.504,7.495-2.162-2.739-4.18-5.333-6.342-7.927 1.875,1.296 3.748,2.594 5.91,3.89-1.442-1.73-2.739-3.314-4.036-4.901 2.017,1.298 4.179,2.739 6.198,4.182-2.162-2.162-4.324-4.469-6.486-6.776 1.874,1.154 3.893,2.162 5.765,3.171-3.746-3.458-7.637-6.771-11.384-9.942 1.439,1.584 2.882,3.459 4.467,5.476-2.739-2.162-5.333-4.324-8.07-6.054 3.025,2.594 5.908,5.479 8.79,8.358-5.765-2.737-9.799-6.628-13.98-10.952 2.739,4.035 5.765,7.927 9.946,11.241 .718.864 1.295,1.586 2.161,2.45 0,0-7.782-4.755-9.079-6.485s-7.495-8.645-7.495-8.645c3.172,5.042 6.198,9.797 9.226,14.841-2.882-3.459-5.622-6.917-8.504-10.231-.47-.07-.9-.21-1.33-.21z"/>
  <path d="m60.094,86.899c1.152,4.033 6.628,6.34 9.654,8.934-2.737-1.441-5.476-2.739-8.358-4.035 0,0 .577,6.051 2.594,8.504 2.162,2.448 8.36,14.266 8.36,14.266 7.061,6.051 13.834,12.392 21.327,17.581-4.323-2.451-8.647-4.755-13.114-7.206-1.729-1.584-3.603-3.025-5.619-4.466 0,0 4.178,5.619 6.197,7.494 2.016,2.017 10.518,7.349 10.518,7.349-3.89-1.875-7.781-4.037-11.816-6.199 0,0 4.756,4.756 6.486,6.053 1.584,1.441 9.799,4.324 9.799,4.324-3.748-.866-7.495-1.73-11.386-2.737 4.181,3.314 8.215,6.34 12.25,9.654-3.604-2.017-7.206-4.178-10.807-6.197 4.033,3.459 8.07,6.917 12.248,10.377-4.178-2.594-8.215-5.188-12.393-7.64 4.612,4.469 9.222,8.936 13.834,13.403-3.314-1.584-6.629-3.46-9.943-5.044 4.178,3.605 8.215,7.352 12.393,10.955-2.739-1.444-5.622-3.028-8.358-4.469 4.755,4.901 9.511,9.943 13.546,15.421-2.451-2.019-4.899-3.892-7.349-5.91 0,0 4.755,7.063 6.917,9.225 2.017,2.162 8.79,7.494 8.79,7.494-2.593-1.155-5.043-2.307-7.637-3.459-2.019-2.162-4.181-4.181-6.197-6.343 2.45,6.343 7.638,11.53 13.691,14.844-1.586-.432-3.171-1.009-4.9-1.584-2.882-2.305-5.62-4.613-8.502-6.917 3.171,4.035 6.34,8.215 9.366,12.248-.143.146-.575.432-.864.577-2.882-3.025-5.62-6.197-8.647-9.079 2.162,3.603 4.467,7.063 6.629,10.521-2.594-2.594-5.188-5.333-7.781-7.927-.432.578-.864,1.152-1.441,1.875v-9.945s-3.89-12.104-7.927-15.996c-3.89-3.892-8.934-14.555-10.229-17.727-1.155-2.88-6.199-16.282-6.199-16.282s-9.654-14.267-9.943-15.997c-.289-1.586-5.476-20.463-5.476-20.463 .136-1.827.136-3.698.279-5.428z"/>
  <path d="m78.252,90.932c1.152,5.333 4.61,10.666 10.088,12.827-1.875-.577-3.605-1.154-5.479-1.729 2.019,2.019 4.035,4.035 6.054,6.053-3.46,2.017-8.504-2.593-10.809-4.755 1.873,4.178 6.628,6.053 10.666,7.781-2.307-.289-4.612-.721-6.917-1.009 3.025,1.875 5.908,3.746 8.934,5.622-2.883-.866-5.908-1.584-8.791-2.307 3.169,1.873 6.197,3.748 9.222,5.622 .432,1.296.866,2.593 1.153,3.891-4.033-2.162-8.213-4.323-12.248-6.485-4.469-4.613-8.936-9.514-12.825-14.556 0,0 2.882,7.636 6.917,11.959 4.178,4.18 16.717,10.379 16.717,10.379l2.594,5.188c1.296,1.729 2.594,3.601 4.035,5.188-1.441-2.885-2.882-5.91-4.324-8.936 5.188,1.586 8.791,5.333 12.969,8.791-3.601-5.042-6.628-8.213-11.816-11.816-.432-1.298-.864-2.737-1.441-4.035 2.162,1.007 4.178,2.016 6.053,2.882-3.025-2.594-6.053-5.188-8.792-8.072 1.875.432 3.749.866 5.479,1.154-1.73-1.298-3.459-2.739-5.044-4.18h3.89c-1.296-1.152-2.594-2.45-3.89-3.603 1.728.143 3.458.143 5.333.288 0,0-10.377-6.771-12.25-8.791-2.166-2.138-5.48-7.327-5.48-7.327z"/>
  <path d="m105.63,165.58s2.737,6.774 5.044,8.501c2.162,1.73 6.917,9.222 6.917,9.222s-.577-3.601-3.603-7.349c-2.88-3.88-8.36-10.37-8.36-10.37z"/>
  <path d="m109.38,183.02c4.035,3.603 8.647,6.629 12.105,10.807v-4.61c-1.585-1.441-3.027-3.025-4.467-4.469 .866,1.584 1.874,3.171 2.882,4.755-3.45-2.16-6.91-4.32-10.51-6.48z"/>
  <path d="m102.32 158.23s2.451 3.171 5.62 6.485c3.458 3.171 8.647 10.233 8.647 10.233-2.017-3.171-4.036-6.485-6.197-9.802-2.74-2.31-5.33-4.61-8.07-6.92z"/>
  <path d="m61.39,103.18c1.009,7.349 4.466,13.116 6.197,19.745 0,0-.144,16.428-2.737,22.048-1.01,4.612-5.476,14.123-5.476,19.456s-1.442,19.885-1.442,19.885c4.324,10.232 1.585,26.084 1.153,36.748-.721-6.628-1.296-13.402-2.016-20.031 .286,9.945.72,20.031-1.874,29.688-.146-3.46-.289-6.774-.577-10.088-.721,2.451-1.441,4.612-2.305,7.061 1.296-9.223 1.871-17.005.864-26.371-1.441,11.241-3.171,17.005-9.225,26.371 3.749-7.495 5.333-12.25 3.749-20.463-1.009.578-1.873,1.296-2.882,1.874 1.01-1.874 2.016-3.747 3.026-5.62-1.153.432-2.305.721-3.458,1.152 .721-1.584 1.442-3.171 2.162-4.755-.72-7.638 1.728-11.819 5.765-18.159-.289,1.875-2.307,14.698 1.728,14.267 .866-7.636 2.739-15.13 3.028-22.768-1.587-16.285 6.194-24.355 7.06-36.173 .578-6.917-1.729-21.041-1.729-21.041-.434-4.18-.723-8.51-1.011-12.83z"/>
  <path d="m299.46,16.428s-4.324-3.603-13.258-3.026c-9.079.719-35.452,6.629-35.452,6.629s-7.061,5.622-8.79,10.088-6.197,10.518-6.197,10.518c5.621-7.924 10.952-16.571 20.32-20.75 0,0 31.703-5.044 34.874-4.612 3.32.433 8.51,1.153 8.51,1.153z"/>
  <path d="m361.86,63.265c-.287,1.728-.575,3.312-.719,5.044 1.728,1.439 3.312,3.026 4.899,4.467l-1.298,1.728c1.154,1.586 2.307,2.884 3.603,4.323 1.586-1.439 3.171-2.737 4.901-4.323-1.587.723-3.172,1.298-4.613,1.875-.574-.432-1.152-.72-1.729-1.298 1.01-1.584 2.019-3.171 2.882-4.755-1.295.432-2.594.721-3.889,1.152-1.154-1.152-2.308-2.162-3.316-3.169-.28-1.732-.57-3.317-.71-5.044z"/>
  <path d="m368.06 84.305s5.907-4.755 8.788-5.91c2.884-1.007 7.494-4.035 7.494-4.035l-4.898 4.757-11.38 5.188z"/>
  <path d="m369.78,90.358c2.162-1.875 4.181-3.605 6.197-5.478 2.307-.867 4.755-1.874 7.063-2.737-2.308,1.439-4.756,3.025-7.063,4.467 2.307-.434 4.755-.721 7.063-1.152-4.46,1.727-8.79,3.312-13.26,4.9z"/>
  <path d="m373.53,98.14c2.161-1.298 4.178-2.452 6.196-3.603 2.737-.578 5.477-1.01 8.356-1.298-2.594,1.009-5.33,2.161-7.924,3.459-2.31.432-4.48.865-6.64,1.442z"/>
  <path d="m374.4,104.05c3.746-2.019 6.34-3.46 10.664-4.469-2.305,1.441-4.324,2.739-6.485,4.324-1.45,0-2.74.15-4.18.15z"/>
  <path d="m375.26,110.82c2.45-1.874 4.901-3.601 7.352-5.188 0,0 8.934-4.035 8.501-3.314-.288.864-8.501,4.901-8.501,4.901-2.45,1.3-4.9,2.3-7.35,3.6z"/>
  <path d="m380.74,116.87c.578-.143 14.845-6.342 14.845-5.331 0,1.87-13.54,5.19-14.84,5.33z"/>
  <path d="m383.04,121.77c3.747-1.153 7.061-2.88 10.952-2.88-2.162,1.009-4.466,2.162-6.485,3.312-1.58-.14-3.02-.14-4.46-.43z"/>
  <path d="m388.38,127.82 7.349-2.305-1.873,2.017-5.48.28z"/>
  <path d="m382.32,182.3s1.874-1.441 4.899-1.441c2.882,0 10.663-.866 10.663-.866-3.313.721-6.629,1.585-9.8,2.451-2.01,0-3.88-.14-5.76-.14z"/>
  <path d="m380.74 191.52c4.181-3.46 8.794-2.883 13.98-3.028-4.76 1.01-9.37 2.02-13.98 3.03z"/>
  <path d="m371.8,248.88c-5.189,1.586-.288,5.476-1.44,7.637-.721,1.587-4.323,3.892-4.323,6.197 0,2.162 1.873,2.162 1.873,2.162s-.577-3.168 1.152-4.178c6.63-4.62 3.9-5.91 2.74-11.82z"/>
  <path d="m381.75,197.57c.866-2.305 10.81-1.439 12.971-1.296-4.33.44-8.65.87-12.97,1.3z"/>
  <path d="m381.6,203.48c4.323,1.298 9.225-.863 13.259-2.162-4.47.72-8.79,1.44-13.26,2.16z"/>
  <path d="m383.33,211.55c3.315-.143 6.632-.143 9.945-.143-1.875.286-3.745.721-5.332,1.152-1.59-.43-3.18-.72-4.62-1.01z"/>
  <path d="m202.91,241.67c-5.477,5.908-8.647,11.384-12.539,18.302-.575,3.746-1.15,4.898-3.89,7.206 1.01-1.875 3.747-5.476 0-5.765-.866,1.009-1.584,2.162-2.162,3.314 0-1.295-.288-2.882-.288-4.035-4.035,0-3.314,0-4.467,3.603-.577-1.155-1.01-2.162-1.441-3.458-1.009,0-1.872,0-2.882.141 .288-.575.432-1.007.72-1.585 0,0 9.223-.143 9.943-.432s5.333-8.79 5.333-8.79c-1.298-.721-2.45-1.441-3.746-2.017 2.305-1.875 3.169-2.019 6.051-2.019-.863-.575-1.873-1.009-2.736-1.441 1.295-.432 2.594-1.009 3.889-1.441-1.584-1.009-3.025-2.016-4.609-3.026 2.016.287 4.034.578 6.054,1.01 2.46,1.73 4.05,1.01 6.79.43z"/>
  <path d="m189.94,234.32c4.469-3.46 7.638-3.028 12.971-1.73-2.451.287-4.899.575-7.349.864 2.736,2.451 4.755,3.46 8.501,3.603 .864-.575 1.729-1.298 2.594-1.873-.864,1.439-1.729,3.025-2.45,4.467-3.602-.721-7.35-1.441-10.952-2.162 .865-.143 1.873-.575 2.596-.72-.73-1.15-4.47-2.45-5.91-2.45z"/>
  <path d="m200.31,235.48c2.882-2.883 6.485-4.324 8.646-7.927-2.161.432-4.469.72-6.484,1.152 2.448-1.587 4.898-3.171 7.492-4.612 .434-1.007 1.009-2.017 1.729-2.88-1.44.144-2.737.432-4.178.576 2.305-1.587 4.61-3.458 6.917-5.044 0,0-3.028,9.079-3.603,10.375-.721,1.444-4.323,6.486-4.323,6.486-2.03.71-4.19,1.29-6.21,1.87z"/>
  <path d="m252.05,155.35s-.577,4.899-.577,7.349 2.882,36.171 2.596,47.123-1.73,25.075-.721,28.533 .721,11.818 0,14.269c-1.443,4.612-5.91,8.647 1.007,11.096-4.034-3.89-.575-7.638 2.739-10.375 0,0-1.44-12.971-1.44-17.151 0-25.794 0-52.024.143-77.963-1.16-1.01-2.45-2.01-3.75-2.88z"/>
  <path d="m256.66,265.02s4.467,2.594 7.061,2.594c6.054,0 12.536,2.162 18.158-.72 3.603.575 5.619-.289 6.196-3.89-1.584-2.162-2.739-4.614-4.181-6.631 2.02,3.46 5.045,7.781-.863,9.225-.575-1.009-1.152-1.875-1.873-2.594 0,4.61-5.188,4.321-8.647,3.89v-4.181c-1.298,4.038-5.619,4.181-8.79,2.019-4.898.434-7.206-1.009-11.53-3.314 .86,2.29 2.3,2.44 4.46,3.59z"/>
  <path d="m279.14,229.42c-.289,5.909-4.035,7.204-9.223,4.61 3.604,2.594 4.612,3.749 8.647,1.875-.866,1.009-1.441,2.162-2.162,3.314-1.009,0-2.019.289-3.027.432l3.892,3.025c-.433.146-.721.432-1.153.578-3.603-1.584-6.484-3.171-10.52-3.603 4.756,1.587 7.927,4.035 11.962,6.917 .432-2.882.72-3.46-.578-6.197 .721-.289 1.441-.72 2.162-1.152-.433-.144-.721-.289-1.152-.435 1.73-2.3 1.15-6.62 1.15-9.36z"/>
  <path d="m262.13,233.75c3.028.286 9.367,2.162 9.8,5.619-3.02-2.17-7.35-3.46-9.8-5.62z"/>
  <path d="m263.58,263.87c2.594-2.739 5.763-2.739 8.646-.723-2.883-2.737-4.467-3.025-8.213-.719-.16.43-.44.86-.44,1.44z"/>
  <path d="m273.38,263.58c.577-3.603 5.189-2.305 7.352-.866-3.46-1.29-4.62-.86-7.35.87z"/>
  <path d="m284.47,259.83c-1.441-.435-3.46,1.296-3.025,2.88 .73-.86 2.17-2.16 3.03-2.88z"/>
  <path d="m70.9,195.41c-2.594,10.809-5.188,21.906-8.934,32.427-1.584,5.042-3.46,9.943-5.333,14.841-1.874,5.479-5.476,13.403 1.297,16.717 8.07,4.038 15.851,4.324 24.355,2.451 1.441-2.016 1.153-2.451 1.009-5.044-1.009,2.162-3.892,5.621-6.774,3.603-2.305,2.018-5.908,2.018-7.206-1.153-2.882,3.458-6.628.864-6.628-3.171-6.917,2.739-5.765-5.908-5.188-9.799 5.908-15.563 10.375-31.704 14.41-47.987-.285-.87-.719-1.88-1.008-2.89z"/>
  <path d="m96.121,197.72c-1.009,10.088 1.007,10.664.289,20.751 0,0 .287,27.813-.432,31.705s-5.044,9.367-4.758,12.827c.289,3.601 1.73,4.033 5.333,4.755 3.458.719 9.654,1.871 9.654,1.871 3.603-.143 7.206-.432 10.809-.432-4.324-1.007-8.502-1.874-12.826-2.594 0,0-7.206-.721-7.206-3.747 0-5.765 4.612-11.673 4.612-17.869 0-3.028-1.873-21.184-1.009-25.221-1.154-7.64-3.462-14.7-4.469-22.05z"/>
  <path d="m92.95,75.37s1.441,21.472 4.467,27.958c2.883,6.485 11.241,22.625 12.828,28.102 1.584,5.187 16.428,21.47 18.733,25.939s3.604,11.241 3.604,11.241c-1.442,3.458-2.882,6.917-4.324,10.231-5.908,3.171-4.179,3.46-9.943,0 1.442,3.46 2.88,7.061 4.179,10.521 4.323-5.763 8.358-12.68 13.403-17.727 18.733,4.756 35.019,1.587 53.465,0-2.306-2.305-6.485-4.609-8.793-6.771-4.032,1.009-8.213,2.162-12.247,3.171-1.585-1.009-3.17-2.162-4.613-3.171 .289,1.295.72,2.88 1.154,4.323-2.739-2.594-5.479-5.044-8.215-7.494 1.01,2.161 1.874,4.323 2.882,6.628-2.739-2.737-5.476-5.333-8.215-8.07 .433,2.737.867,5.333 1.442,8.07-2.448-3.314-4.899-6.628-7.204-9.799-9.224-12.971-19.313-25.219-27.958-38.62-1.874-3.171-3.892-6.342-5.765-9.37 0,0 10.952,11.241 13.978,15.856 2.882,4.464 9.223,9.942 9.223,9.942-8.646-12.539-17.436-25.364-26.66-37.757 6.485,7.061 12.97,13.978 19.456,21.038-2.594-4.035-5.188-8.213-7.927-12.25-7.35-9.943-14.987-19.74-22.482-29.686 2.739,5.19 5.479,10.377 8.072,15.565 1.295,3.171 2.448,6.485 3.601,9.942 0,0-11.961-15.562-11.961-17.438 .009-1.728-4.169-10.372-4.169-10.372z"/>
  <path d="m76.667,140.79c9.797,18.447 17.867,29.976 20.029,51.88-2.737,10.086-4.178,19.888-7.492,29.977-4.469-13.691-4.901-19.024-18.878-25.078 0,0 3.746-24.353 5.044-36.025 .72-10.23 1.297-20.75 1.297-20.75z"/>
  <path d="m399.18,134.45s14.412,6.631 17.727,7.494c3.603.864 13.113,3.169 13.113,3.169s1.008.723.144,1.441c-.721.577-12.25-2.16-14.267-2.737-5.476-1.73-11.815-4.324-16.859-7.493 .01-.71.15-1.43.15-1.87z"/>
  <path d="m61.535,255.36c4.178-1.009 5.765-1.873 8.647,1.152 2.88-1.727 3.169-.432 5.763.146 1.009-.289 2.018-.577 3.028-.72-1.01,1.009-2.305,2.016-3.316,3.025-1.585-2.882-4.322-2.017-6.052.289-1.729-4.178-2.882-3.459-6.917-2.739-1.152.146-2.305.289-3.459.434 .865-.57 1.585-1.15 2.306-1.58z"/>
  <path d="m108.66,262.42c.866.432 1.586,1.01 2.45,1.585 2.594-1.874 3.026-1.441 6.485-.866 1.442-1.439 1.874-2.88 3.6-3.747-.718-.143-1.295-.286-1.87-.432-.724.866-1.442,1.584-2.308,2.308h-4.178c-1.73,1.02-2.16,1.31-4.18,1.16z"/>
  <path d="m118.02,264.15c.575,2.451-1.152,4.324-3.891,5.044 3.028,0 4.323.289 6.196-1.585-.57-1.14-1.73-2.44-2.31-3.45z" fill="#333"/>
  <path d="m107.65,268.48 3.169-2.162 1.729,2.451-4.9-.29z"/>
  <path d="m346.15,52.456c3.028-3.458 9.223-4.901 11.673,0-.721.864-1.296,1.875-2.017,2.882l-5.765-.434c-1.29-.718-2.59-1.584-3.89-2.448z" fill="#ebdfbe"/>
  <path d="m348.17,22.914s2.882-3.171 5.766-1.298c4.466,3.604 5.619,6.343 6.482,14.99-1.152,2.448-3.314,1.871-4.467,1.298 0,0-2.161-8.938-6.771-10.666-1.59-.867-1.01-4.324-1.01-4.324z" fill="#ebdfbe"/>
  <path d="m351.92,59.519c0,.719.146,1.584.146,2.448 1.441.72 2.162.864 3.601,1.584 .435-1.007.435-1.73-.72-2.737-1.01-1.155-1.88-1.295-3.03-1.295z" fill="#f2eabe"/>
  <path d="m347.59,66.002c-.432,2.882 4.323,3.892 6.343,3.027-2.01-1.009-3.89-1.009-6.34-3.027z" fill="#ebdfbe"/>
  <path d="m356.82,73.785c3.746,5.333 3.314,9.798 3.889,15.851 .435-3.025.578-6.194 1.01-9.365 0,0 4.467,7.204 4.467,9.365 0,2.308 2.596,14.844 2.596,14.844-.577-6.34-1.154-12.536-1.729-18.735-1.152-3.89-2.307-7.781-3.314-11.815 .144,3.171.432,6.196.718,9.222-1.438-3.314-2.88-6.628-4.32-10.086 .143,1.584.143,3.168.143,4.755-1.17-1.299-2.32-2.595-3.47-4.036z" fill="#ebdfbe"/>
  <path d="m363.16,86.899s-.144,7.924.146,9.8c.432,1.873 3.601,7.926 3.601,7.926-1.16-6.048-2.46-11.813-3.75-17.721z" fill="#ebdfbe"/>
  <path d="m370.36,62.687c.577-4.612 5.187-5.762 8.934-3.168 1.009,4.033 2.019,8.067 3.027,11.959-1.587.866-3.316,1.73-5.044,2.451 .863-1.585 1.585-3.172 2.45-4.899-2.019,0-3.891.144-5.621.287 1.152-1.584 2.162-3.168 3.314-4.61-2.44-.724-4.61-1.442-7.06-2.02z" fill="#ebdfbe"/>
  <path d="m384.34,78.108-2.162,2.162c1.01.575 1.874,1.295 3.028,1.873 0,1.152 0,2.594.144,3.892-1.73,1.439-3.604,2.88-5.334,4.323 2.02-.866 3.892-1.443 5.908-2.161 .435,1.15.867,2.161 1.299,3.168 .288-1.584.432-3.028.721-4.755-1.3-2.882-2.46-5.764-3.61-8.502z" fill="#ebdfbe"/>
  <path d="m388.38,94.392c-1.873,2.307-1.441,3.457-1.441,6.342 1.01-.146 1.729-.146 2.739-.291-.58-2.013-1.02-4.03-1.3-6.048z" fill="#ebdfbe"/>
  <path d="m390.97,105.2c-.721,1.011-1.438,2.021-2.306,3.316 .432.866.867,1.873 1.441,3.028 .721-.434 1.584-.577 2.306-.723-.43-2.03-1.01-3.9-1.44-5.63z" fill="#ebdfbe"/>
  <path d="m290.24,19.742c11.24,1.873 21.184,4.467 30.983,10.666-.578,1.007-1.152,2.162-1.73,3.312 0,0-13.545-6.194-17.291-7.061-3.89-1.006-11.96-6.917-11.96-6.917z" fill="#ebdfbe"/>
  <path d="m241.38 25.219c-8.358 10.809-10.088 15.278-11.098 28.967 1.88-12.682 6.2-19.022 11.1-28.967z" fill="#ebdfbe"/>
  <path d="m207.95,24.354s-12.827,10.952-18.158,11.527c-13.98,1.587-23.345,4.615-33.434,14.267 14.266-7.058 34.875-6.772 42.082-12.537 3.746-3.168 9.511-7.924 9.511-7.924-2.019,3.601-4.034,7.204-6.196,10.95 2.882-2.303 6.053-4.755 9.079-6.917 5.044-9.797 11.672-12.105 19.599-16.571-4.323,1.009-8.646,1.873-12.824,2.739-1.876,2.737-3.749,5.331-5.768,8.07 .435-2.162 1.012-4.181 1.587-6.343-1.73,1.01-3.61,1.876-5.48,2.739z" fill="#ebdfbe"/>
  <path d="m116.15 33.72c-12.106 2.739-14.7 12.25-17.294 22.195 4.754-8.792 8.794-15.132 17.294-22.195z" fill="#ebdfbe"/>
  <path d="m109.09,132.15s5.91,9.799 8.504,12.968c2.737,3.171 4.899,4.755 6.485,7.927 1.874,3.025 4.033,7.781 4.033,7.781-3.745-4.035-6.484-8.933-10.807-12.536 2.451,5.476 6.051,10.952 9.079,16.142-2.162-2.451-4.466-4.901-6.773-7.35-4.61-4.755-6.917-9.802-8.791-15.996 1.873,3.025 3.749,6.339 5.62,9.365-.576-2.162-1.153-4.324-1.728-6.628-1.87-4.02-3.75-7.91-5.62-11.66z" fill="#ebdfbe"/>
  <path d="m102.75 143.82c4.035 6.628 9.079 12.968 14.267 18.878-1.296-2.45-2.448-5.044-3.603-7.64-3.61-3.75-7.21-7.49-10.67-11.24z" fill="#ebdfbe"/>
  <path d="m172.93,263.29c1.296-1.441 3.315-2.739 4.61-.578 1.73,3.32-3.6.87-4.61.58z" fill="#ebdfbe"/>
  <path d="m181.29 261.85c-3.171 2.305 1.728 5.188 2.16 3.171 0-1.01-2.16-3.17-2.16-3.17z" fill="#ebdfbe"/>
  <path d="m186.19,262.14-1.729,2.451 .865,1.441s1.01-.291 1.441-1.298c.3-.86-.57-2.59-.57-2.59z" fill="#f2eabe"/>
  <path d="m264.44,263.87c1.009-1.155 2.305-1.73 3.892-1.73 1.584,2.594.432,3.601-2.883,3.169-.29-.58-.72-1.01-1.01-1.44z" fill="#ebdfbe"/>
  <path d="m276.55,262.71s-2.737.723-3.171,1.441c-.287.72-1.007,1.875.72,2.019 4.61.29 4.9.14 2.45-3.46z" fill="#ebdfbe"/>
  <path d="m283.46,261.42s-1.873,1.441-1.296,2.305c.864,1.297 2.306.577 3.314.145-.71-.86-1.43-1.58-2.01-2.44z" fill="#ebdfbe"/>
  <path d="m111.25,265.16s1.009-1.729 1.873-1.729c1.01,0 2.883,2.162 2.883,2.88 0,.866-1.874,1.73-1.874,1.73-2.01-1.29-2.01-.86-2.88-2.88z" fill="#ebdfbe"/>
  <path d="m119.32,261.7c-.146.575-.434,1.298-.724,1.873 .579.864 1.156,1.728 1.73,2.451 3.03-1.87 2.16-2.59-1.01-4.32z" fill="#ebdfbe"/>
  <path d="m106.78,262.86c-.863.578-1.584,1.009-2.305,1.73-.434,2.737 3.89,1.873 3.89,0-.58-.72-1.15-1.16-1.59-1.73z" fill="#ebdfbe"/>
  <path d="m72.776,258.24c-4.035.143-2.019,2.018.432,2.882 .432-.578.72-1.009.863-1.441-.431-.43-.863-1.15-1.295-1.44z" fill="#ebdfbe"/>
  <path d="m244.84,11.673c6.773-4.178 19.168-9.657 26.949-4.755 3.745,2.448 11.097,4.755 11.097,4.755-4.9.864-9.8,1.729-14.555,2.594 1.007-1.01 2.017-2.017 3.168-3.025 0,0-7.491-1.441-10.374-1.441-2.75-.001-16.3,1.872-16.3,1.872z" fill="#ebdfbe"/>
  <path d="m203.63,197.14c-4.035,6.053-6.343,10.952-8.647,17.726l7.206.289-9.367,3.603 .288,3.026 5.765,2.018-9.368,2.448c6.918,0 11.387-.286 17.007-4.178 0,0-5.333-.72-7.639-1.009s-3.892-1.152-3.892-1.152l7.927-3.171 6.629-3.168-10.375-.724 4.45-15.72z" fill="#ebdfbe"/>
  <path d="m188.78,228.7c4.467-.577 7.926-1.009 12.682-.289-4.75.58-8.06,1.59-12.68.29z" fill="#ebdfbe"/>
  <path d="m352.35,66.147c2.161,0 .432-2.883-.864-.721-.01.144.57.721.86.721z" fill="#fff"/>
 </g>
</svg>
